<svg width="64" height="64" viewBox="0 0 64 64" fill="none" xmlns="http://www.w3.org/2000/svg">
<rect width="64" height="64" rx="4" fill="#334155"/>
<path d="M38.6477 22.8182V26.9091H24.3466V22.8182H38.6477ZM28.1818 16.5455H33.2784V41.3125C33.2784 42.3011 33.4261 43.0455 33.7216 43.5455C34.017 44.0341 34.3977 44.3693 34.8636 44.5511C35.3409 44.7216 35.858 44.8068 36.4148 44.8068C36.8239 44.8068 37.1818 44.7784 37.4886 44.7216C37.7955 44.6648 38.0341 44.6193 38.2045 44.5852L39.125 48.7955C38.8295 48.9091 38.4091 49.0227 37.8636 49.1364C37.3182 49.2614 36.6364 49.3295 35.8182 49.3409C34.4773 49.3636 33.2273 49.125 32.0682 48.625C30.9091 48.125 29.9716 47.3523 29.2557 46.3068C28.5398 45.2614 28.1818 43.9489 28.1818 42.3693V16.5455Z" fill="white"/>
</svg>
